<svg width="576" height="512" xmlns="http://www.w3.org/2000/svg" class="svg-inline--fa fa-address-card fa-w-18">

 <g>
  <title>background</title>
  <rect fill="none" id="canvas_background" height="402" width="582" y="-1" x="-1"/>
 </g>
 <g>
  <title>Layer 1</title>
  <path id="svg_1" d="m519,-6l-480,0c-26.5,0 -48,21.5 -48,48l0,352c0,26.5 21.5,48 48,48l480,0c26.5,0 48,-21.5 48,-48l0,-352c0,-26.5 -21.5,-48 -48,-48zm0,400l-480,0l0,-352l480,0l0,352zm-320,-176c35.3,0 64,-28.7 64,-64s-28.7,-64 -64,-64s-64,28.7 -64,64s28.7,64 64,64zm230.4,304l179.2,0c12.4,0 22.4,-8.6 22.4,-19.2l0,-19.2c0,-31.8 -30.1,-57.6 -67.2,-57.6c-10.8,0 -18.7,8 -44.8,8c-26.9,0 -33.4,-8 -44.8,-8c-37.1,0 -67.2,25.8 -67.2,57.6l0,19.2c0,10.6 10,19.2 22.4,19.2zm-78.4,-240l112,0c4.4,0 8,-3.6 8,-8l0,-16c0,-4.4 -3.6,-8 -8,-8l-112,0c-4.4,0 -8,3.6 -8,8l0,16c0,4.4 3.6,8 8,8zm78.4,176l112,0c4.4,0 8,-3.6 8,-8l0,-16c0,-4.4 -3.6,-8 -8,-8l-190.4,0c-4.4,0 -8,3.6 -8,8l0,16c0,4.4 3.6,8 8,8l78.4,0zm0,-64l112,0c4.4,0 8,-3.6 8,-8l0,-16c0,-4.4 -3.6,-8 -8,-8l-190.4,0c-4.4,0 -8,3.6 -8,8l0,16c0,4.4 3.6,8 8,8l78.4,0z" fill="#ffffff"/>
 </g>
</svg>